<svg width="515" height="582" viewBox="0 0 515 582" fill="none" xmlns="http://www.w3.org/2000/svg">
<g clip-path="url(#clip0_524_6)">
<path fill-rule="evenodd" clip-rule="evenodd" d="M515 0C397.225 0.000600055 301.75 95.476 301.75 213.251C301.75 331.026 397.225 426.501 515 426.502L515 0Z" fill="#FF4F6E"/>
<path fill-rule="evenodd" clip-rule="evenodd" d="M1.12893e-07 581.002C4.58893e-05 581.002 9.16656e-05 581.002 0.000137442 581.002C117.775 581.002 213.251 485.526 213.251 367.751C213.251 249.976 117.775 154.5 0.000161171 154.5C0.000115395 154.5 6.96182e-05 154.5 2.38419e-05 154.5L1.12893e-07 581.002Z" fill="#FFC42D"/>
<path d="M134.89 117.271C134.89 84.4251 161.513 57.8025 194.359 57.8025C227.206 57.8025 253.828 84.4393 253.828 117.271C253.828 150.118 227.206 176.74 194.359 176.74C161.513 176.74 134.89 150.118 134.89 117.271Z" fill="#FF4F6E"/>
<path d="M167.808 117.271C167.808 102.611 179.699 90.7198 194.359 90.7198C209.019 90.7198 220.91 102.611 220.91 117.271C220.91 131.931 209.019 143.822 194.359 143.822C179.699 143.837 167.808 131.946 167.808 117.271Z" fill="#FBFBFB"/>
<path d="M260.863 463.697C260.863 430.85 287.486 404.228 320.332 404.228C353.178 404.228 379.801 430.865 379.801 463.697C379.801 496.543 353.178 523.166 320.332 523.166C287.485 523.166 260.863 496.543 260.863 463.697Z" fill="#FFC42C"/>
<path d="M293.781 463.697C293.781 449.036 305.672 437.145 320.332 437.145C334.992 437.145 346.883 449.036 346.883 463.697C346.883 478.357 334.992 490.248 320.332 490.248C305.672 490.262 293.781 478.371 293.781 463.697Z" fill="#FBFBFB"/>
<g filter="url(#filter0_d_524_6)">
<rect width="233.17" height="252.764" rx="12" transform="matrix(-4.37114e-08 1 1 4.37114e-08 29.3912 301.748)" fill="white"/>
</g>
<path d="M119.03 368.079L111.91 357.959C115.79 357.279 118.55 353.439 118.55 349.519C118.55 344.999 115.83 340.519 109.51 340.519H98.5096V368.079H104.07V358.199H105.95L112.51 368.079H119.03ZM108.95 345.439C111.55 345.439 112.95 347.439 112.95 349.639C112.95 351.839 111.63 353.719 108.51 353.719H104.07V345.439H108.95ZM121.58 346.039V350.959L127.62 348.639V368.079H132.9V341.519H132.46L121.58 346.039ZM148.083 368.559C155.643 368.559 157.763 362.479 157.763 355.039C157.763 347.479 155.643 341.519 148.083 341.519C140.443 341.519 138.283 347.479 138.283 355.039C138.283 362.479 140.443 368.559 148.083 368.559ZM148.083 363.679C144.643 363.679 143.603 359.799 143.603 355.039C143.603 350.199 144.643 346.399 148.083 346.399C151.443 346.399 152.403 350.199 152.403 355.039C152.403 359.799 151.443 363.679 148.083 363.679ZM191.558 340.519H186.758L178.318 358.599L169.798 340.519H165.078L161.678 368.079H167.358L169.358 350.999L176.158 364.959H180.518L187.238 350.999L189.238 368.079H194.918L191.558 340.519ZM209.07 356.279V350.079H205.07V356.279H198.87V360.279H205.07V366.519H209.07V360.279H215.31V356.279H209.07Z" fill="#2A2A38"/>
<path d="M81.2196 391.206L78.2916 387.062C80.2596 386.918 81.1716 385.222 81.1716 383.622C81.1716 381.91 80.2436 380.182 77.8436 380.182H73.6996V391.206H75.1556V387.046H76.5796L79.4756 391.206H81.2196ZM77.8756 381.526C78.9956 381.526 79.7156 382.39 79.7156 383.622C79.7156 384.87 79.0756 385.718 77.4596 385.718H75.1556V381.526H77.8756ZM90.045 387.446C90.045 385.078 88.461 383.542 86.333 383.542C84.205 383.542 82.493 385.078 82.493 387.446C82.493 389.814 84.205 391.398 86.333 391.398C87.773 391.398 89.117 390.694 89.757 389.398L88.557 388.918C88.125 389.67 87.293 390.086 86.381 390.086C85.101 390.086 84.141 389.398 83.933 388.07H90.013C90.029 387.862 90.045 387.654 90.045 387.446ZM83.949 386.87C84.173 385.526 85.069 384.854 86.333 384.854C87.565 384.854 88.477 385.59 88.653 386.87H83.949ZM94.5862 389.43L92.2822 383.734H90.7942L93.8982 391.206H95.2582L98.3782 383.734H96.8742L94.5862 389.43ZM106.701 387.446C106.701 385.078 105.117 383.542 102.989 383.542C100.861 383.542 99.1492 385.078 99.1492 387.446C99.1492 389.814 100.861 391.398 102.989 391.398C104.429 391.398 105.773 390.694 106.413 389.398L105.213 388.918C104.781 389.67 103.949 390.086 103.037 390.086C101.757 390.086 100.797 389.398 100.589 388.07H106.669C106.685 387.862 106.701 387.654 106.701 387.446ZM100.605 386.87C100.829 385.526 101.725 384.854 102.989 384.854C104.221 384.854 105.133 385.59 105.309 386.87H100.605ZM112.47 383.542C111.654 383.542 110.438 383.958 109.99 384.87V383.734H108.598V391.206H109.99V387.158C109.99 385.542 111.238 384.918 112.278 384.918C113.318 384.918 114.086 385.718 114.086 386.966V391.206H115.478V386.886C115.494 384.79 114.326 383.542 112.47 383.542ZM123.193 387.846C123.177 389.462 121.929 390.086 120.889 390.086C119.849 390.086 119.097 389.286 119.097 388.022V383.734H117.705V388.054C117.689 390.15 118.841 391.398 120.713 391.398C121.545 391.398 122.745 390.982 123.193 390.038V391.206H124.585V383.734H123.193V387.846ZM134.061 387.446C134.061 385.078 132.477 383.542 130.349 383.542C128.221 383.542 126.509 385.078 126.509 387.446C126.509 389.814 128.221 391.398 130.349 391.398C131.789 391.398 133.133 390.694 133.773 389.398L132.573 388.918C132.141 389.67 131.309 390.086 130.397 390.086C129.117 390.086 128.157 389.398 127.949 388.07H134.029C134.045 387.862 134.061 387.654 134.061 387.446ZM127.965 386.87C128.189 385.526 129.085 384.854 130.349 384.854C131.581 384.854 132.493 385.59 132.669 386.87H127.965ZM145.141 391.398C148.277 391.398 150.357 389.542 150.357 385.686H145.557V386.95H148.757C148.757 388.71 147.125 390.054 145.141 390.054C142.821 390.054 141.013 388.086 141.013 385.718C141.013 383.35 142.821 381.334 145.141 381.334C146.181 381.334 147.141 381.75 147.845 382.374L148.853 381.43C147.893 380.55 146.597 379.99 145.141 379.99C142.005 379.99 139.557 382.582 139.557 385.718C139.557 388.838 142.005 391.398 145.141 391.398ZM159.17 387.446C159.17 385.078 157.586 383.542 155.458 383.542C153.33 383.542 151.618 385.078 151.618 387.446C151.618 389.814 153.33 391.398 155.458 391.398C156.898 391.398 158.242 390.694 158.882 389.398L157.682 388.918C157.25 389.67 156.418 390.086 155.506 390.086C154.226 390.086 153.266 389.398 153.058 388.07H159.138C159.154 387.862 159.17 387.654 159.17 387.446ZM153.074 386.87C153.298 385.526 154.194 384.854 155.458 384.854C156.69 384.854 157.602 385.59 157.778 386.87H153.074ZM164.939 383.542C164.123 383.542 162.907 383.958 162.459 384.87V383.734H161.067V391.206H162.459V387.158C162.459 385.542 163.707 384.918 164.747 384.918C165.787 384.918 166.555 385.718 166.555 386.966V391.206H167.947V386.886C167.963 384.79 166.795 383.542 164.939 383.542ZM177.326 387.446C177.326 385.078 175.742 383.542 173.614 383.542C171.486 383.542 169.774 385.078 169.774 387.446C169.774 389.814 171.486 391.398 173.614 391.398C175.054 391.398 176.398 390.694 177.038 389.398L175.838 388.918C175.406 389.67 174.574 390.086 173.662 390.086C172.382 390.086 171.422 389.398 171.214 388.07H177.294C177.31 387.862 177.326 387.654 177.326 387.446ZM171.23 386.87C171.454 385.526 172.35 384.854 173.614 384.854C174.846 384.854 175.758 385.59 175.934 386.87H171.23ZM182.727 383.542C181.735 383.542 181.015 384.118 180.631 385.43V383.734H179.223V391.206H180.631V388.47C180.631 386.502 181.223 384.886 182.711 384.886C182.999 384.886 183.399 384.95 183.799 385.142L184.023 383.83C183.799 383.686 183.255 383.542 182.727 383.542ZM191.049 384.902C190.553 384.022 189.497 383.542 188.377 383.542C186.265 383.542 184.649 385.254 184.649 387.462C184.649 389.75 186.361 391.398 188.313 391.398C189.513 391.398 190.553 390.774 191.049 389.878V391.206H192.441V383.734H191.049V384.902ZM188.521 390.086C187.145 390.086 186.057 388.886 186.057 387.462C186.057 386.054 187.145 384.854 188.505 384.854C189.753 384.854 191.049 385.926 191.049 387.462C191.049 388.982 189.849 390.086 188.521 390.086ZM196.848 383.734V380.918H195.456V383.734H194.112V384.934H195.456V391.206H196.848V384.934H198.464V383.734H196.848ZM206.92 387.446C206.92 385.078 205.336 383.542 203.208 383.542C201.08 383.542 199.368 385.078 199.368 387.446C199.368 389.814 201.08 391.398 203.208 391.398C204.648 391.398 205.992 390.694 206.632 389.398L205.432 388.918C205 389.67 204.168 390.086 203.256 390.086C201.976 390.086 201.016 389.398 200.808 388.07H206.888C206.904 387.862 206.92 387.654 206.92 387.446ZM200.824 386.87C201.048 385.526 201.944 384.854 203.208 384.854C204.44 384.854 205.352 385.59 205.528 386.87H200.824ZM214.721 384.902C214.225 384.022 213.169 383.542 212.049 383.542C210.001 383.542 208.321 385.094 208.321 387.462C208.321 389.814 210.017 391.398 212.065 391.398C213.137 391.398 214.225 390.886 214.721 390.038V391.206H216.113V379.67H214.721V384.902ZM212.177 390.086C210.817 390.086 209.729 388.934 209.729 387.446C209.729 385.942 210.817 384.854 212.177 384.854C213.409 384.854 214.721 385.83 214.721 387.446C214.721 389.046 213.521 390.086 212.177 390.086ZM228.646 385.334C229.686 384.934 230.038 383.958 230.038 382.998C230.038 381.27 228.886 380.182 227.062 380.182H222.918V391.206H227.414C229.43 391.206 230.63 389.686 230.63 388.102C230.63 386.902 229.942 385.622 228.646 385.334ZM228.582 383.142C228.582 384.086 228.086 384.774 227.094 384.774H224.374V381.526H227.046C228.054 381.526 228.582 382.198 228.582 383.142ZM224.374 389.862V386.054H227.19C228.534 386.054 229.174 386.982 229.174 387.974C229.174 388.998 228.47 389.862 227.11 389.862H224.374ZM235.383 389.238L233.127 383.734H231.623L234.631 390.982L233.063 394.838H234.535L239.175 383.734H237.671L235.383 389.238ZM95.5465 412.398C98.6985 412.398 101.146 409.838 101.146 406.718C101.146 403.582 98.6985 400.99 95.5465 400.99C92.4105 400.99 89.9785 403.582 89.9785 406.718C89.9785 409.838 92.4105 412.398 95.5465 412.398ZM95.5465 411.054C93.2265 411.054 91.4345 409.07 91.4345 406.718C91.4345 404.35 93.2265 402.334 95.5465 402.334C97.8985 402.334 99.6905 404.35 99.6905 406.718C99.6905 409.07 97.8985 411.054 95.5465 411.054ZM108.537 408.846C108.521 410.462 107.273 411.086 106.233 411.086C105.193 411.086 104.441 410.286 104.441 409.022V404.734H103.049V409.054C103.033 411.15 104.185 412.398 106.057 412.398C106.889 412.398 108.089 411.982 108.537 411.038V412.206H109.929V404.734H108.537V408.846ZM115.852 404.542C114.86 404.542 114.14 405.118 113.756 406.43V404.734H112.348V412.206H113.756V409.47C113.756 407.502 114.348 405.886 115.836 405.886C116.124 405.886 116.524 405.95 116.924 406.142L117.148 404.83C116.924 404.686 116.38 404.542 115.852 404.542ZM127.313 412.398C129.009 412.398 130.481 411.678 131.457 410.526L130.401 409.63C129.665 410.494 128.545 411.054 127.313 411.054C124.993 411.054 123.169 409.07 123.169 406.718C123.169 404.35 124.993 402.334 127.313 402.334C128.545 402.334 129.665 402.894 130.401 403.758L131.457 402.862C130.481 401.71 129.009 400.99 127.313 400.99C124.193 400.99 121.713 403.598 121.713 406.718C121.713 409.838 124.193 412.398 127.313 412.398ZM134.584 412.206V400.67H133.192V412.206H134.584ZM137.693 402.91C138.237 402.91 138.685 402.51 138.685 401.982C138.685 401.454 138.237 401.054 137.693 401.054C137.165 401.054 136.717 401.454 136.717 401.982C136.717 402.51 137.165 402.91 137.693 402.91ZM138.397 412.206V404.734H137.005V412.206H138.397ZM147.873 408.446C147.873 406.078 146.289 404.542 144.161 404.542C142.033 404.542 140.321 406.078 140.321 408.446C140.321 410.814 142.033 412.398 144.161 412.398C145.601 412.398 146.945 411.694 147.585 410.398L146.385 409.918C145.953 410.67 145.121 411.086 144.209 411.086C142.929 411.086 141.969 410.398 141.761 409.07H147.841C147.857 408.862 147.873 408.654 147.873 408.446ZM141.777 407.87C142.001 406.526 142.897 405.854 144.161 405.854C145.393 405.854 146.305 406.59 146.481 407.87H141.777ZM153.642 404.542C152.826 404.542 151.61 404.958 151.162 405.87V404.734H149.77V412.206H151.162V408.158C151.162 406.542 152.41 405.918 153.45 405.918C154.49 405.918 155.258 406.718 155.258 407.966V412.206H156.65V407.886C156.666 405.79 155.498 404.542 153.642 404.542ZM160.848 404.734V401.918H159.456V404.734H158.112V405.934H159.456V412.206H160.848V405.934H162.464V404.734H160.848ZM166.15 412.398C167.702 412.398 169.046 411.518 169.046 410.126C169.046 409.278 168.646 408.35 167.094 407.966L165.99 407.694C165.51 407.582 165.03 407.31 165.03 406.798C165.03 406.222 165.51 405.758 166.23 405.758C166.822 405.758 167.414 406.142 167.43 406.718H168.774C168.774 405.214 167.462 404.542 166.198 404.542C164.694 404.542 163.638 405.518 163.638 406.75C163.638 407.95 164.358 408.558 165.606 408.894L166.63 409.134C167.222 409.262 167.654 409.55 167.654 410.11C167.654 410.718 167.094 411.182 166.15 411.182C165.238 411.182 164.678 410.654 164.662 410.014H163.366C163.43 411.55 164.806 412.398 166.15 412.398ZM175.646 402.91C176.19 402.91 176.638 402.51 176.638 401.982C176.638 401.454 176.19 401.054 175.646 401.054C175.118 401.054 174.67 401.454 174.67 401.982C174.67 402.51 175.118 402.91 175.646 402.91ZM176.35 412.206V404.734H174.958V412.206H176.35ZM182.642 404.542C181.826 404.542 180.61 404.958 180.162 405.87V404.734H178.77V412.206H180.162V408.158C180.162 406.542 181.41 405.918 182.45 405.918C183.49 405.918 184.258 406.718 184.258 407.966V412.206H185.65V407.886C185.666 405.79 184.498 404.542 182.642 404.542ZM196.836 407.406C197.524 406.59 198.052 405.518 198.052 404.702C198.052 402.846 196.74 401.614 194.772 401.614C192.98 401.614 191.732 402.67 191.524 404.254L192.772 404.526C192.852 403.582 193.636 402.942 194.772 402.942C195.908 402.942 196.66 403.646 196.66 404.702C196.66 405.182 196.212 406.03 195.556 406.83L191.62 411.582V412.206H198.196V410.862H193.956L196.836 407.406ZM203.774 412.398C206.782 412.398 207.566 409.95 207.566 407.006C207.566 404.03 206.782 401.614 203.774 401.614C200.766 401.614 199.982 404.03 199.982 407.006C199.982 409.95 200.766 412.398 203.774 412.398ZM203.774 411.086C201.854 411.086 201.39 409.182 201.39 407.006C201.39 404.798 201.854 402.942 203.774 402.942C205.694 402.942 206.174 404.798 206.174 407.006C206.174 409.182 205.694 411.086 203.774 411.086ZM214.524 407.406C215.212 406.59 215.74 405.518 215.74 404.702C215.74 402.846 214.428 401.614 212.46 401.614C210.668 401.614 209.42 402.67 209.212 404.254L210.46 404.526C210.54 403.582 211.324 402.942 212.46 402.942C213.596 402.942 214.348 403.646 214.348 404.702C214.348 405.182 213.9 406.03 213.244 406.83L209.308 411.582V412.206H215.884V410.862H211.644L214.524 407.406ZM217.19 403.214V404.558L219.414 403.646V412.206H220.806V401.614H220.758L217.19 403.214Z" fill="#8993AD"/>
<path opacity="0.2" d="M82.6064 467.624C65.8399 468.159 43.1071 484.504 43.1071 484.504V518.264H269.3V418.334C269.3 418.334 244.641 462.784 220.685 457.833C207.412 455.09 206.492 435.592 193.002 436.902C185.429 437.638 183.159 444.147 175.784 446.017C162.65 449.348 154.782 436.125 141.687 439.603C124.424 444.188 129.5 470.916 111.978 474.376C100.431 476.656 94.3698 467.248 82.6064 467.624Z" fill="url(#paint0_linear_524_6)"/>
<g filter="url(#filter1_f_524_6)">
<path d="M43.1071 484.504C43.1071 484.504 65.8399 468.159 82.6064 467.624C94.3698 467.248 100.431 476.656 111.978 474.376C129.5 470.916 124.424 444.188 141.687 439.603C154.782 436.125 162.65 449.348 175.784 446.017C183.159 444.147 185.429 437.638 193.002 436.902C206.492 435.592 207.412 455.09 220.685 457.833C244.641 462.784 269.3 418.334 269.3 418.334" stroke="url(#paint1_linear_524_6)" stroke-width="3" stroke-linecap="round"/>
</g>
<path d="M43.1071 484.504C43.1071 484.504 65.8399 468.159 82.6064 467.624C94.3698 467.248 100.431 476.656 111.978 474.376C129.5 470.916 124.424 444.188 141.687 439.603C154.782 436.125 162.65 449.348 175.784 446.017C183.159 444.147 185.429 437.638 193.002 436.902C206.492 435.592 207.412 455.09 220.685 457.833C244.641 462.784 269.3 418.334 269.3 418.334" stroke="url(#paint2_linear_524_6)" stroke-width="3" stroke-linecap="round"/>
<g filter="url(#filter2_d_524_6)">
<rect width="233.17" height="252.764" rx="12" transform="matrix(-4.37114e-08 1 1 4.37114e-08 232.19 47.0251)" fill="white"/>
</g>
<path d="M298.862 94.4976C300.542 92.6176 301.742 90.3776 301.742 87.8576C301.742 83.0976 298.342 79.9376 293.102 79.9376C287.862 79.9376 284.822 83.1376 284.182 87.8176L288.942 88.6176C289.262 86.3376 290.582 84.8176 292.902 84.8176C294.942 84.8176 296.382 86.0576 296.382 87.8176C296.382 88.6976 295.662 90.0576 294.582 91.3776L284.342 103.658V106.498H301.982V101.578H292.702L298.862 94.4976ZM320.345 91.7776L329.025 78.9376H322.385L317.065 87.3776L311.785 78.9376H305.065L313.745 91.7776L304.225 106.498H310.745L317.065 96.2176L323.345 106.498H329.945L320.345 91.7776ZM371.137 78.9376H366.337L357.897 97.0176L349.377 78.9376H344.657L341.257 106.498H346.937L348.937 89.4176L355.737 103.378H360.097L366.817 89.4176L368.817 106.498H374.497L371.137 78.9376ZM387.577 106.978C392.897 106.978 397.617 103.058 397.617 97.1776C397.617 91.2576 392.897 87.3376 387.577 87.3376C382.257 87.3376 377.537 91.2576 377.537 97.1776C377.537 103.058 382.257 106.978 387.577 106.978ZM387.577 102.098C384.977 102.098 382.857 100.058 382.857 97.1776C382.857 94.2576 384.977 92.2176 387.577 92.2176C390.177 92.2176 392.297 94.2576 392.297 97.1776C392.297 100.058 390.177 102.098 387.577 102.098ZM412.424 87.3376C410.104 87.3376 407.984 88.6976 406.944 91.8176V87.8176H401.744V106.498H406.984V100.098C406.984 94.7776 408.824 92.2576 411.504 92.2576C412.144 92.2576 413.064 92.3376 414.184 92.9376L415.384 87.9376C414.544 87.4976 413.424 87.3376 412.424 87.3376ZM436.162 96.8576C436.162 91.1376 431.802 87.3376 426.442 87.3376C421.122 87.3376 416.522 91.1376 416.522 97.1776C416.522 102.938 420.722 106.978 426.482 106.978C429.762 106.978 433.002 105.578 434.762 103.218L431.722 100.138C430.562 101.458 428.722 102.338 426.802 102.338C424.322 102.338 422.562 101.058 422.002 98.8576H436.042C436.122 98.0176 436.162 97.3776 436.162 96.8576ZM422.002 95.4576C422.562 92.9376 424.402 91.8576 426.562 91.8576C428.922 91.8576 430.722 93.2576 430.882 95.4576H422.002Z" fill="#2A2A38"/>
<path d="M325.379 129.625L321.187 118.601H319.651L315.459 129.625H316.979L318.051 126.793H322.787L323.859 129.625H325.379ZM320.419 120.505L322.307 125.513H318.531L320.419 120.505ZM329.099 127.849L326.795 122.153H325.307L328.411 129.625H329.771L332.891 122.153H331.387L329.099 127.849ZM340.062 123.321C339.566 122.457 338.51 121.961 337.39 121.961C335.342 121.961 333.662 123.513 333.662 125.881C333.662 128.233 335.358 129.817 337.406 129.817C338.478 129.817 339.566 129.305 340.062 128.457V128.681C340.062 131.209 339.038 132.137 337.39 132.137C336.558 132.137 335.678 131.673 335.214 130.825L334.03 131.449C334.766 132.761 336.03 133.449 337.39 133.449C339.854 133.449 341.454 132.121 341.454 128.585V122.153H340.062V123.321ZM337.518 128.505C336.158 128.505 335.07 127.353 335.07 125.865C335.07 124.361 336.158 123.273 337.518 123.273C338.75 123.273 340.062 124.249 340.062 125.865C340.062 127.465 338.862 128.505 337.518 128.505ZM351.427 129.817C353.715 129.817 355.107 128.233 355.107 126.521C355.107 124.953 353.987 123.993 352.115 123.497L350.675 123.113C349.203 122.729 349.075 121.961 349.075 121.577C349.075 120.489 350.099 119.753 351.203 119.753C352.387 119.753 353.299 120.505 353.299 121.609H354.739C354.739 119.641 353.187 118.409 351.251 118.409C349.331 118.409 347.619 119.689 347.619 121.593C347.619 122.489 347.987 123.865 350.323 124.425L351.747 124.777C352.675 125.017 353.651 125.497 353.651 126.569C353.651 127.545 352.851 128.473 351.427 128.473C349.955 128.473 349.027 127.481 348.979 126.505H347.539C347.555 128.217 349.107 129.817 351.427 129.817ZM362.937 123.321C362.441 122.441 361.385 121.961 360.265 121.961C358.153 121.961 356.537 123.673 356.537 125.881C356.537 128.169 358.249 129.817 360.201 129.817C361.401 129.817 362.441 129.193 362.937 128.297V129.625H364.329V122.153H362.937V123.321ZM360.409 128.505C359.033 128.505 357.945 127.305 357.945 125.881C357.945 124.473 359.033 123.273 360.393 123.273C361.641 123.273 362.937 124.345 362.937 125.881C362.937 127.401 361.737 128.505 360.409 128.505ZM368.159 129.625V118.089H366.767V129.625H368.159ZM377.636 125.865C377.636 123.497 376.052 121.961 373.924 121.961C371.796 121.961 370.084 123.497 370.084 125.865C370.084 128.233 371.796 129.817 373.924 129.817C375.364 129.817 376.708 129.113 377.348 127.817L376.148 127.337C375.716 128.089 374.884 128.505 373.972 128.505C372.692 128.505 371.732 127.817 371.524 126.489H377.604C377.62 126.281 377.636 126.073 377.636 125.865ZM371.54 125.289C371.764 123.945 372.66 123.273 373.924 123.273C375.156 123.273 376.068 124.009 376.244 125.289H371.54ZM381.725 129.817C383.277 129.817 384.621 128.937 384.621 127.545C384.621 126.697 384.221 125.769 382.669 125.385L381.565 125.113C381.085 125.001 380.605 124.729 380.605 124.217C380.605 123.641 381.085 123.177 381.805 123.177C382.397 123.177 382.989 123.561 383.005 124.137H384.349C384.349 122.633 383.037 121.961 381.773 121.961C380.269 121.961 379.213 122.937 379.213 124.169C379.213 125.369 379.933 125.977 381.181 126.313L382.205 126.553C382.797 126.681 383.229 126.969 383.229 127.529C383.229 128.137 382.669 128.601 381.725 128.601C380.813 128.601 380.253 128.073 380.237 127.433H378.941C379.005 128.969 380.381 129.817 381.725 129.817ZM393.925 129.817C396.053 129.817 397.845 128.249 397.845 125.881C397.845 123.513 396.053 121.961 393.925 121.961C391.797 121.961 390.021 123.513 390.021 125.881C390.021 128.249 391.797 129.817 393.925 129.817ZM393.925 128.505C392.565 128.505 391.429 127.433 391.429 125.881C391.429 124.345 392.565 123.273 393.925 123.273C395.301 123.273 396.453 124.345 396.453 125.881C396.453 127.433 395.301 128.505 393.925 128.505ZM403.866 119.401V118.089H403.066C401.066 118.089 400.25 119.433 400.25 121.385V122.153H398.81V123.353H400.25V129.625H401.642V123.353H403.386V122.153H401.642V121.193C401.626 120.217 401.978 119.401 403.306 119.401H403.866ZM325.645 150.817C328.797 150.817 331.245 148.257 331.245 145.137C331.245 142.001 328.797 139.409 325.645 139.409C322.509 139.409 320.077 142.001 320.077 145.137C320.077 148.257 322.509 150.817 325.645 150.817ZM325.645 149.473C323.325 149.473 321.533 147.489 321.533 145.137C321.533 142.769 323.325 140.753 325.645 140.753C327.997 140.753 329.789 142.769 329.789 145.137C329.789 147.489 327.997 149.473 325.645 149.473ZM338.636 147.265C338.62 148.881 337.372 149.505 336.332 149.505C335.292 149.505 334.54 148.705 334.54 147.441V143.153H333.148V147.473C333.132 149.569 334.284 150.817 336.156 150.817C336.988 150.817 338.188 150.401 338.636 149.457V150.625H340.028V143.153H338.636V147.265ZM345.951 142.961C344.959 142.961 344.239 143.537 343.855 144.849V143.153H342.447V150.625H343.855V147.889C343.855 145.921 344.447 144.305 345.935 144.305C346.223 144.305 346.623 144.369 347.023 144.561L347.247 143.249C347.023 143.105 346.479 142.961 345.951 142.961ZM357.412 150.817C359.108 150.817 360.58 150.097 361.556 148.945L360.5 148.049C359.764 148.913 358.644 149.473 357.412 149.473C355.092 149.473 353.268 147.489 353.268 145.137C353.268 142.769 355.092 140.753 357.412 140.753C358.644 140.753 359.764 141.313 360.5 142.177L361.556 141.281C360.58 140.129 359.108 139.409 357.412 139.409C354.292 139.409 351.812 142.017 351.812 145.137C351.812 148.257 354.292 150.817 357.412 150.817ZM364.683 150.625V139.089H363.291V150.625H364.683ZM367.791 141.329C368.335 141.329 368.783 140.929 368.783 140.401C368.783 139.873 368.335 139.473 367.791 139.473C367.263 139.473 366.815 139.873 366.815 140.401C366.815 140.929 367.263 141.329 367.791 141.329ZM368.495 150.625V143.153H367.103V150.625H368.495ZM377.972 146.865C377.972 144.497 376.388 142.961 374.26 142.961C372.132 142.961 370.42 144.497 370.42 146.865C370.42 149.233 372.132 150.817 374.26 150.817C375.7 150.817 377.044 150.113 377.684 148.817L376.484 148.337C376.052 149.089 375.22 149.505 374.308 149.505C373.028 149.505 372.068 148.817 371.86 147.489H377.94C377.956 147.281 377.972 147.073 377.972 146.865ZM371.876 146.289C372.1 144.945 372.996 144.273 374.26 144.273C375.492 144.273 376.404 145.009 376.58 146.289H371.876ZM383.741 142.961C382.925 142.961 381.709 143.377 381.261 144.289V143.153H379.869V150.625H381.261V146.577C381.261 144.961 382.509 144.337 383.549 144.337C384.589 144.337 385.357 145.137 385.357 146.385V150.625H386.749V146.305C386.765 144.209 385.597 142.961 383.741 142.961ZM390.946 143.153V140.337H389.554V143.153H388.21V144.353H389.554V150.625H390.946V144.353H392.562V143.153H390.946ZM396.249 150.817C397.801 150.817 399.145 149.937 399.145 148.545C399.145 147.697 398.745 146.769 397.193 146.385L396.089 146.113C395.609 146.001 395.129 145.729 395.129 145.217C395.129 144.641 395.609 144.177 396.329 144.177C396.921 144.177 397.513 144.561 397.529 145.137H398.873C398.873 143.633 397.561 142.961 396.297 142.961C394.793 142.961 393.737 143.937 393.737 145.169C393.737 146.369 394.457 146.977 395.705 147.313L396.729 147.553C397.321 147.681 397.753 147.969 397.753 148.529C397.753 149.137 397.193 149.601 396.249 149.601C395.337 149.601 394.777 149.073 394.761 148.433H393.465C393.529 149.969 394.905 150.817 396.249 150.817Z" fill="#8993AD"/>
<line x1="245.906" y1="254.222" x2="472.218" y2="254.222" stroke="#F5F5F5"/>
<line x1="245.906" y1="225.811" x2="472.218" y2="225.811" stroke="#F5F5F5"/>
<line x1="245.906" y1="197.4" x2="472.218" y2="197.4" stroke="#F5F5F5"/>
<line x1="245.906" y1="168.988" x2="472.218" y2="168.988" stroke="#F5F5F5"/>
<path d="M260.601 173.897C260.601 171.462 262.575 169.488 265.01 169.488V169.488C267.445 169.488 269.419 171.462 269.419 173.897V237.676H260.601V173.897Z" fill="#FEC42E"/>
<path d="M260.601 190.944C260.601 188.509 262.575 186.535 265.01 186.535V186.535C267.445 186.535 269.419 188.509 269.419 190.944V254.723H260.601V190.944Z" fill="#FE4F6E"/>
<path d="M354.653 190.552C354.653 188.117 356.627 186.143 359.062 186.143V186.143C361.496 186.143 363.47 188.117 363.47 190.552V241.007H354.653V190.552Z" fill="#FEC42E"/>
<path d="M354.653 204.268C354.653 201.833 356.627 199.859 359.062 199.859V199.859C361.496 199.859 363.47 201.833 363.47 204.268V254.723H354.653V204.268Z" fill="#FE4F6E"/>
<path d="M448.705 184.674C448.705 182.239 450.678 180.266 453.113 180.266V180.266C455.548 180.266 457.522 182.239 457.522 184.674V239.832H448.705V184.674Z" fill="#FEC42E"/>
<path d="M448.705 199.565C448.705 197.131 450.678 195.157 453.113 195.157V195.157C455.548 195.157 457.522 197.131 457.522 199.565V254.723H448.705V199.565Z" fill="#FE4F6E"/>
<path d="M323.302 206.227C323.302 203.793 325.276 201.819 327.711 201.819V201.819C330.146 201.819 332.12 203.793 332.12 206.227V244.142H323.302V206.227Z" fill="#FEC42E"/>
<path d="M323.302 216.807C323.302 214.373 325.276 212.399 327.711 212.399V212.399C330.146 212.399 332.12 214.373 332.12 216.807V254.722H323.302V216.807Z" fill="#FE4F6E"/>
<path d="M291.952 219.943C291.952 217.509 293.926 215.535 296.361 215.535V215.535C298.795 215.535 300.769 217.509 300.769 219.943V246.885H291.952V219.943Z" fill="#FEC42E"/>
<path d="M291.952 227.781C291.952 225.346 293.926 223.372 296.361 223.372V223.372C298.795 223.372 300.769 225.346 300.769 227.781V254.723H291.952V227.781Z" fill="#FE4F6E"/>
<path d="M417.354 219.943C417.354 217.509 419.328 215.535 421.763 215.535V215.535C424.198 215.535 426.171 217.509 426.171 219.943V246.885H417.354V219.943Z" fill="#FEC42E"/>
<path d="M417.354 227.781C417.354 225.346 419.328 223.372 421.763 223.372V223.372C424.198 223.372 426.171 225.346 426.171 227.781V254.723H417.354V227.781Z" fill="#FE4F6E"/>
<path d="M386.004 202.308C386.004 199.873 387.977 197.9 390.412 197.9V197.9C392.847 197.9 394.821 199.873 394.821 202.308V243.358H386.004V202.308Z" fill="#FEC42E"/>
<path d="M386.004 213.672C386.004 211.238 387.977 209.264 390.412 209.264V209.264C392.847 209.264 394.821 211.238 394.821 213.672V254.722H386.004V213.672Z" fill="#FE4F6E"/>
</g>
<defs>
<filter id="filter0_d_524_6" x="-55.6088" y="220.748" width="422.764" height="403.17" filterUnits="userSpaceOnUse" color-interpolation-filters="sRGB">
<feFlood flood-opacity="0" result="BackgroundImageFix"/>
<feColorMatrix in="SourceAlpha" type="matrix" values="0 0 0 0 0 0 0 0 0 0 0 0 0 0 0 0 0 0 127 0" result="hardAlpha"/>
<feOffset dy="4"/>
<feGaussianBlur stdDeviation="42.5"/>
<feColorMatrix type="matrix" values="0 0 0 0 0.694118 0 0 0 0 0.729412 0 0 0 0 0.788235 0 0 0 0.15 0"/>
<feBlend mode="normal" in2="BackgroundImageFix" result="effect1_dropShadow_524_6"/>
<feBlend mode="normal" in="SourceGraphic" in2="effect1_dropShadow_524_6" result="shape"/>
</filter>
<filter id="filter1_f_524_6" x="35.6069" y="410.834" width="241.193" height="81.17" filterUnits="userSpaceOnUse" color-interpolation-filters="sRGB">
<feFlood flood-opacity="0" result="BackgroundImageFix"/>
<feBlend mode="normal" in="SourceGraphic" in2="BackgroundImageFix" result="shape"/>
<feGaussianBlur stdDeviation="3" result="effect1_foregroundBlur_524_6"/>
</filter>
<filter id="filter2_d_524_6" x="147.19" y="-33.9749" width="422.764" height="403.17" filterUnits="userSpaceOnUse" color-interpolation-filters="sRGB">
<feFlood flood-opacity="0" result="BackgroundImageFix"/>
<feColorMatrix in="SourceAlpha" type="matrix" values="0 0 0 0 0 0 0 0 0 0 0 0 0 0 0 0 0 0 127 0" result="hardAlpha"/>
<feOffset dy="4"/>
<feGaussianBlur stdDeviation="42.5"/>
<feColorMatrix type="matrix" values="0 0 0 0 0.694118 0 0 0 0 0.729412 0 0 0 0 0.788235 0 0 0 0.15 0"/>
<feBlend mode="normal" in2="BackgroundImageFix" result="effect1_dropShadow_524_6"/>
<feBlend mode="normal" in="SourceGraphic" in2="effect1_dropShadow_524_6" result="shape"/>
</filter>
<linearGradient id="paint0_linear_524_6" x1="227.781" y1="359.062" x2="192.874" y2="494.306" gradientUnits="userSpaceOnUse">
<stop stop-color="#FA5674"/>
<stop offset="1" stop-color="#FA5674" stop-opacity="0.04"/>
</linearGradient>
<linearGradient id="paint1_linear_524_6" x1="269.3" y1="418.334" x2="65.7263" y2="489.905" gradientUnits="userSpaceOnUse">
<stop stop-color="#FA5674"/>
<stop offset="1" stop-color="#FA5674" stop-opacity="0.2"/>
</linearGradient>
<linearGradient id="paint2_linear_524_6" x1="269.3" y1="418.334" x2="65.7263" y2="489.905" gradientUnits="userSpaceOnUse">
<stop stop-color="#FA5674"/>
<stop offset="1" stop-color="#FA5674" stop-opacity="0.2"/>
</linearGradient>
<clipPath id="clip0_524_6">
<rect width="515" height="581.002" fill="white"/>
</clipPath>
</defs>
</svg>
